<svg width="508" height="767" viewBox="0 0 508 767" fill="none" xmlns="http://www.w3.org/2000/svg">
<path d="M0.477314 399.509C8.90184 329.3 71.509 314.199 125.477 268.509C152.064 246 170.478 237.694 196.477 214.509C242.381 173.573 236.811 83.842 298.477 94.5086C360.144 105.175 423.404 83.2978 453.977 138.509C488.888 201.551 419.477 196.009 375.477 305.509C331.477 415.009 435.836 397.822 433.477 463.509C431.976 505.323 404.184 524.668 403.977 566.509C403.704 621.814 476.521 648.506 453.977 699.009C426.483 760.602 282.477 719.509 282.477 719.509C230.644 729.509 66.7746 769.549 59.4773 681.509C55.2001 629.905 121.096 618.104 125.477 566.509C132.371 485.337 -9.22814 480.392 0.477314 399.509Z" fill="#E5E5E5" fill-opacity="0.06"/>
<g clip-path="url(#clip0_49_267)">
<path d="M206.417 602.553C137.151 608.59 99.8656 684.442 145.748 736.235C166.952 760.26 202.36 772.145 237.26 763.88C255.957 759.447 272.123 749.612 283.639 736.814C333.93 681.223 286.558 595.524 206.417 602.553Z" fill="url(#paint0_radial_49_267)"/>
<path d="M214.833 743.82C190.481 743.82 169.265 731.412 158.282 713.089C134.051 672.69 167.473 623.648 216.262 625.085C247.299 625.664 273.516 646.705 278.517 674.684C285.08 710.795 254.746 743.82 214.833 743.82Z" fill="url(#paint1_radial_49_267)"/>
<g opacity="0.75">
<path d="M240.469 694.043C237.793 693.43 237.054 696.493 238.568 697.184C240.081 697.885 243.884 699.979 244.647 698.576C245.409 697.184 243.508 694.744 240.469 694.043Z" fill="#056DB1"/>
<path d="M267.049 668.202C264.458 668.748 261.357 669.95 264.009 671.699C266.674 673.448 270.839 672.746 271.227 670.652C271.602 668.547 271.99 667.155 267.049 668.202Z" fill="#056DB1"/>
<path d="M215.027 724.428C209.456 721.354 201.355 720.24 200.592 723.381C199.829 726.522 205.145 731.412 211.6 730.71C218.066 730.019 218.829 726.522 215.027 724.428Z" fill="#056DB1"/>
<path d="M233.191 741.38C228.166 742.75 222.886 743.575 217.424 743.764C218.672 736.491 226.192 738.785 230.212 739.788C231.387 740.088 232.368 740.679 233.191 741.38Z" fill="#056DB1"/>
<path d="M179.715 724.083C182.174 725.074 183.893 720.24 180.478 716.052C177.063 711.864 175.538 706.618 171.36 705.571C167.182 704.524 164.905 718.146 179.715 724.083Z" fill="#056DB1"/>
<path d="M163.004 706.963C161.66 707.186 161.103 709.759 164.143 710.104C167.182 710.46 167.182 706.272 163.004 706.963Z" fill="#056DB1"/>
<path d="M196.802 692.65C194.126 692.428 191.486 693.697 191.861 696.493C192.237 699.289 196.414 696.493 198.315 696.493C200.217 696.493 200.98 692.996 196.802 692.65Z" fill="#056DB1"/>
<path d="M223.007 660.171C220.706 659.169 220.343 663.668 222.244 664.359C224.145 665.061 229.461 662.956 223.007 660.171Z" fill="#056DB1"/>
</g>
<path d="M198.703 682.871C185.794 684.965 183.893 685.31 172.123 694.399C164.336 700.403 156.211 698.465 151.609 696.46C150.749 692.584 150.289 688.563 150.289 684.442C150.289 667.556 157.955 652.307 170.258 641.503C172.789 642.884 175.404 644.756 177.439 647.251C183.13 654.234 181.992 657.03 198.703 665.061C215.402 673.092 211.612 680.777 198.703 682.871Z" fill="url(#paint2_linear_49_267)"/>
<path d="M273.176 659.001C261.261 656.707 253.135 669.104 245.022 668.202C235.528 667.155 238.192 654.234 230.212 640.612C226.216 633.795 225.937 629.073 226.652 626.065C247.274 629.563 264.445 642.082 273.176 659.001Z" fill="url(#paint3_linear_49_267)"/>
<path d="M279.389 684.441C279.389 707.487 265.124 727.458 244.271 737.304C239.512 730.387 247.226 725.252 256.417 719.895C267.812 713.256 257.18 710.461 259.069 699.634C260.97 688.808 253.753 688.106 257.168 679.028C259.602 672.546 272.293 678.694 279.352 682.748C279.377 683.305 279.389 683.873 279.389 684.441Z" fill="url(#paint4_linear_49_267)"/>
<path d="M218.829 702.43C211.927 704.401 208.197 696.838 199.466 698.587C190.735 700.336 183.518 714.649 195.288 714.303C207.059 713.958 210.098 712.555 218.829 718.146C227.56 723.738 237.817 719.895 240.856 711.162C243.884 702.43 241.982 695.791 218.829 702.43Z" fill="url(#paint5_linear_49_267)"/>
<path d="M233.252 676.233C229.619 677.302 228.698 679.028 229.837 681.122C230.975 683.216 235.528 682.871 237.805 686.012C240.081 689.153 245.785 692.996 247.299 686.012C248.824 679.028 241.607 673.782 233.252 676.233Z" fill="url(#paint6_linear_49_267)"/>
<path opacity="0.5" d="M219.967 658.066C219.289 662.722 214.651 658.066 207.059 656.674C199.466 655.281 196.427 651.082 199.841 648.287C203.256 645.491 207.81 643.397 212.375 645.836C216.928 648.287 220.718 652.831 219.967 658.066Z" fill="#056DB1"/>
<path d="M211.987 630.476C202.493 630.476 197.94 635.366 189.209 638.162C184.002 639.821 179.885 637.895 177.402 636.068C187.962 629.14 200.883 625.063 214.845 625.063C215.329 625.063 215.802 625.063 216.274 625.085C216.94 627.603 216.698 630.476 211.987 630.476Z" fill="url(#paint7_linear_49_267)"/>
<path opacity="0.45" d="M276.313 702.608C271.045 717.7 259.384 730.164 244.271 737.304C240.747 738.963 237.042 740.333 233.191 741.392C228.165 742.762 222.886 743.586 217.424 743.775C216.564 743.809 215.705 743.82 214.833 743.82C190.481 743.82 169.265 731.412 158.281 713.089C155.206 707.966 152.929 702.374 151.609 696.46C150.749 692.584 150.289 688.563 150.289 684.441C150.289 677.268 151.67 670.396 154.201 664.036C161.503 684.096 178.214 709.982 216.201 714.782C223.612 715.718 230.539 715.84 237.005 715.328C252.869 714.047 265.923 708.946 276.313 702.608Z" fill="url(#paint8_linear_49_267)"/>
<path opacity="0.45" d="M279.389 684.441C279.389 690.779 278.311 696.883 276.313 702.608C271.045 717.7 259.384 730.164 244.271 737.304C240.747 738.963 237.042 740.333 233.191 741.392C228.166 742.762 222.886 743.586 217.424 743.775C216.565 743.809 215.705 743.82 214.833 743.82C190.481 743.82 169.265 731.412 158.282 713.089C169.447 717.311 182.743 720.195 198.509 720.763C213.804 721.32 226.494 719.148 237.005 715.317C259.602 707.097 272.196 691.191 279.025 678.093C279.207 679.618 279.316 681.178 279.364 682.737C279.377 683.305 279.389 683.873 279.389 684.441Z" fill="url(#paint9_linear_49_267)"/>
<path d="M278.529 674.718C278.529 674.718 269.338 643.753 227.076 633.562C201.743 627.447 184.16 632.96 174.145 638.351C206.126 614.337 255.037 623.871 273.177 659.002C277.391 667.144 278.226 673.582 278.529 674.718Z" fill="url(#paint10_linear_49_267)"/>
</g>
<rect width="180.465" height="169.372" rx="15" transform="matrix(0.856374 0.516789 -0.581739 0.813664 307.25 56.0191)" fill="#686767"/>
<rect width="183.069" height="3.74455" transform="matrix(0.854718 0.519102 -0.579191 0.815198 279.09 92.9595)" fill="#595959"/>
<rect width="183.069" height="3.74455" transform="matrix(0.854718 0.519102 -0.579191 0.815198 268.598 107.736)" fill="#595959"/>
<ellipse cx="3.68113" cy="3.68016" rx="3.68113" ry="3.68016" transform="matrix(0.856376 0.516788 -0.581741 0.813663 293.341 82.5727)" fill="#7D7D7D"/>
<ellipse cx="3.68106" cy="3.68012" rx="3.68106" ry="3.68012" transform="matrix(0.856374 0.51679 -0.581739 0.813664 430.715 166.053)" fill="#7D7D7D"/>
<ellipse cx="3.68109" cy="3.68013" rx="3.68109" ry="3.68013" transform="matrix(0.856376 0.516788 -0.581741 0.813662 269.208 116.559)" fill="#7D7D7D"/>
<ellipse cx="3.68113" cy="3.68016" rx="3.68113" ry="3.68016" transform="matrix(0.856376 0.516788 -0.581741 0.813662 406.582 200.04)" fill="#7D7D7D"/>
<rect width="36.2823" height="92.9359" rx="10" transform="matrix(1.03205 -0.0450368 0.0262208 0.965319 358.647 186.08)" fill="#D6D6D6"/>
<ellipse cx="12.1779" cy="11.7616" rx="12.1779" ry="11.7616" transform="matrix(1.03204 -0.0455442 0.0258594 0.965336 374.835 256.162)" fill="url(#paint11_radial_49_267)"/>
<rect width="34.6628" height="93.9269" rx="10" transform="matrix(-0.301344 -0.916293 -0.994261 0.286203 300.047 152.137)" fill="#D6D6D6"/>
<ellipse cx="11.9179" cy="12.0128" rx="11.9179" ry="12.0128" transform="matrix(-0.300834 -0.916443 -0.994107 0.286682 224.173 161.589)" fill="url(#paint12_radial_49_267)"/>
<path d="M325.2 258.606L244.791 210.08L197.087 276.806C193.875 281.3 195.104 287.257 199.834 290.111L213.451 298.329C218.181 301.183 224.619 299.854 227.832 295.361L250.986 262.973C254.199 258.479 260.637 257.15 265.367 260.004L265.977 260.373C270.707 263.227 271.936 269.184 268.723 273.678L245.569 306.065C242.356 310.559 243.586 316.516 248.315 319.37L263.115 328.301C267.845 331.156 274.283 329.827 277.496 325.333L325.2 258.606Z" fill="#D6D6D6"/>
<rect width="119.682" height="115.938" transform="matrix(0.856361 0.516811 -0.581717 0.813679 297.896 113.148)" fill="#E1E1E1"/>
<rect width="113.234" height="33.4212" transform="matrix(0.855853 0.517522 -0.580934 0.814152 244.67 193.406)" fill="#E1E1E1"/>
<rect width="9.06853" height="114.427" transform="matrix(0.855073 0.518613 -0.579733 0.814877 312.764 122.855)" fill="url(#paint13_linear_49_267)"/>
<rect width="9.06854" height="114.427" transform="matrix(0.855073 0.518612 -0.579733 0.814876 373.465 159.741)" fill="url(#paint14_linear_49_267)"/>
<rect width="121.387" height="3.74193" transform="matrix(0.854789 0.519008 -0.579298 0.815138 232.622 203.285)" fill="#9A9A9A"/>
<rect width="12.7991" height="29.2645" rx="6.39955" transform="matrix(0.856116 0.517153 -0.58134 0.813907 426.844 139.302)" fill="#D6D6D6"/>
<rect width="12.799" height="29.2644" rx="6.39952" transform="matrix(0.856115 0.517154 -0.581338 0.813907 311.832 69.4108)" fill="#D6D6D6"/>
<path d="M422.037 153.199C400.832 182.857 358.335 191.627 327.117 172.79C295.899 153.952 287.782 114.638 308.987 84.9807C330.192 55.3233 372.689 46.5523 403.907 65.3903C435.124 84.2283 443.242 123.542 422.037 153.199Z" fill="#D6D6D6" stroke="#E1E1E1" stroke-width="0.5"/>
<path fill-rule="evenodd" clip-rule="evenodd" d="M421.249 154.582C399.369 182.145 358.386 189.832 328.026 171.511C297.792 153.266 289.138 115.894 307.676 86.5524C306.97 87.441 306.285 88.3502 305.62 89.2799C284.337 119.047 292.49 158.51 323.828 177.421C355.167 196.333 397.825 187.533 419.108 157.765C419.858 156.716 420.572 155.654 421.249 154.582Z" fill="#DDDDDD"/>
<path fill-rule="evenodd" clip-rule="evenodd" d="M417.052 160.493C395.172 188.056 354.188 195.743 323.828 177.422C293.595 159.177 284.941 121.805 303.479 92.4634C302.773 93.352 302.088 94.2612 301.423 95.1908C280.14 124.958 288.293 164.42 319.631 183.332C350.97 202.244 393.628 193.444 414.911 163.676C415.661 162.627 416.375 161.565 417.052 160.493Z" fill="#D6D6D6"/>
<path d="M429.465 131.677C419.632 107.485 367.798 74.0548 334.513 66.8552C309.199 84.8713 295.557 111.574 306.576 139.135C312.695 154.439 321.407 161.792 336.464 170.06C347.603 176.177 355.044 179.275 368.139 179.51C398.881 180.064 425.338 148.517 429.465 131.677Z" fill="black"/>
<rect width="3.68228" height="1.86696" rx="0.933481" transform="matrix(1.0028 0.210518 -0.250073 0.942133 345.865 188.303)" fill="#C4C4C4"/>
<rect width="1.83009" height="1.85052" rx="0.915043" transform="matrix(1.00297 0.209893 -0.250789 0.941987 354.35 189.23)" fill="#C4C4C4"/>
<mask id="mask0_49_267" style="mask-type:alpha" maskUnits="userSpaceOnUse" x="302" y="66" width="128" height="114">
<path d="M429.465 131.678C419.632 107.486 367.798 74.056 334.513 66.8565C309.199 84.8725 295.557 111.575 306.576 139.136C312.695 154.44 321.407 161.793 336.464 170.061C347.603 176.178 355.044 179.276 368.139 179.512C398.881 180.065 425.338 148.519 429.465 131.678Z" fill="black"/>
</mask>
<g mask="url(#mask0_49_267)">
<rect width="17.9693" height="101.607" transform="matrix(0.37692 0.886556 -0.97124 0.361344 385.027 72.6915)" fill="#484848"/>
<rect width="10.0929" height="106.92" transform="matrix(0.378171 0.886064 -0.971713 0.360161 404.67 96.696)" fill="#484848"/>
</g>
<ellipse cx="11.9625" cy="11.9614" rx="11.9625" ry="11.9614" transform="matrix(0.856387 0.516774 -0.581757 0.813655 335.25 75.1488)" fill="#828282" fill-opacity="0.5"/>
<ellipse cx="6.44139" cy="6.44077" rx="6.44139" ry="6.44077" transform="matrix(0.856388 0.516772 -0.581759 0.813653 351.096 84.8559)" fill="#828282" fill-opacity="0.5"/>
<ellipse cx="4.60096" cy="4.60056" rx="4.60096" ry="4.60056" transform="matrix(0.856386 0.516776 -0.581756 0.813656 324.588 89.9254)" fill="#828282" fill-opacity="0.5"/>
<ellipse cx="4.60098" cy="4.60057" rx="4.60098" ry="4.60057" transform="matrix(0.856387 0.516775 -0.581757 0.813655 360.404 58.808)" fill="#BC0D0D"/>
<ellipse cx="4.60101" cy="4.60057" rx="4.60101" ry="4.60057" transform="matrix(0.856388 0.516773 -0.581759 0.813654 382.172 63.5749)" fill="#BC0D0D"/>
<rect width="49.9471" height="25.8914" rx="5" transform="matrix(0.856192 0.517048 -0.581456 0.813837 292.099 177.906)" fill="#273AE7"/>
<path d="M316.791 197.195L304.024 198.849L310.986 201.714L293.519 204.542" stroke="#D2CB15"/>
<defs>
<radialGradient id="paint0_radial_49_267" cx="0" cy="0" r="1" gradientUnits="userSpaceOnUse" gradientTransform="translate(214.929 684.324) scale(77.1353 70.9491)">
<stop stop-color="#90DD6F"/>
<stop offset="1" stop-color="#B8FFA9" stop-opacity="0"/>
</radialGradient>
<radialGradient id="paint1_radial_49_267" cx="0" cy="0" r="1" gradientUnits="userSpaceOnUse" gradientTransform="translate(218.038 661.205) scale(78.3415 72.0586)">
<stop stop-color="#00B3DC"/>
<stop offset="1" stop-color="#056DB0"/>
</radialGradient>
<linearGradient id="paint2_linear_49_267" x1="172.42" y1="592.898" x2="184.96" y2="763.845" gradientUnits="userSpaceOnUse">
<stop stop-color="#F2F236"/>
<stop offset="1" stop-color="#F2F236" stop-opacity="0"/>
</linearGradient>
<linearGradient id="paint3_linear_49_267" x1="244.856" y1="587.584" x2="257.397" y2="758.531" gradientUnits="userSpaceOnUse">
<stop stop-color="#F2F236"/>
<stop offset="1" stop-color="#F2F236" stop-opacity="0"/>
</linearGradient>
<linearGradient id="paint4_linear_49_267" x1="250.608" y1="587.162" x2="263.148" y2="758.109" gradientUnits="userSpaceOnUse">
<stop stop-color="#F2F236"/>
<stop offset="1" stop-color="#F2F236" stop-opacity="0"/>
</linearGradient>
<linearGradient id="paint5_linear_49_267" x1="205.376" y1="590.48" x2="217.916" y2="761.428" gradientUnits="userSpaceOnUse">
<stop stop-color="#F2F236"/>
<stop offset="1" stop-color="#F2F236" stop-opacity="0"/>
</linearGradient>
<linearGradient id="paint6_linear_49_267" x1="230.371" y1="588.647" x2="242.912" y2="759.594" gradientUnits="userSpaceOnUse">
<stop stop-color="#F2F236"/>
<stop offset="1" stop-color="#F2F236" stop-opacity="0"/>
</linearGradient>
<linearGradient id="paint7_linear_49_267" x1="193.499" y1="591.352" x2="206.04" y2="762.299" gradientUnits="userSpaceOnUse">
<stop stop-color="#F2F236"/>
<stop offset="1" stop-color="#F2F236" stop-opacity="0"/>
</linearGradient>
<linearGradient id="paint8_linear_49_267" x1="205.021" y1="761.31" x2="213.227" y2="679.962" gradientUnits="userSpaceOnUse">
<stop stop-color="#00ACD8"/>
<stop offset="1" stop-color="#0983BD"/>
</linearGradient>
<linearGradient id="paint9_linear_49_267" x1="211.531" y1="757.819" x2="220.705" y2="672.775" gradientUnits="userSpaceOnUse">
<stop stop-color="#056EB1"/>
<stop offset="1" stop-color="#00A9D7" stop-opacity="0.3"/>
</linearGradient>
<linearGradient id="paint10_linear_49_267" x1="261.715" y1="592.361" x2="226.223" y2="668.452" gradientUnits="userSpaceOnUse">
<stop stop-color="#E2FFB5"/>
<stop offset="1" stop-color="#FFFFB3" stop-opacity="0"/>
</linearGradient>
<radialGradient id="paint11_radial_49_267" cx="0" cy="0" r="1" gradientUnits="userSpaceOnUse" gradientTransform="translate(14.9882 14.4758) rotate(-157.514) scale(7.09687 6.92649)">
<stop stop-color="white"/>
<stop offset="1" stop-color="#DDDDDD"/>
</radialGradient>
<radialGradient id="paint12_radial_49_267" cx="0" cy="0" r="1" gradientUnits="userSpaceOnUse" gradientTransform="translate(14.6681 14.785) rotate(-156.636) scale(6.99048 7.02875)">
<stop stop-color="white"/>
<stop offset="1" stop-color="#DDDDDD"/>
</radialGradient>
<linearGradient id="paint13_linear_49_267" x1="4.53426" y1="0" x2="4.53426" y2="114.427" gradientUnits="userSpaceOnUse">
<stop stop-color="#3BB094"/>
<stop offset="1" stop-color="#232030"/>
</linearGradient>
<linearGradient id="paint14_linear_49_267" x1="4.53427" y1="0" x2="4.53427" y2="114.427" gradientUnits="userSpaceOnUse">
<stop stop-color="#3BB094"/>
<stop offset="1" stop-color="#232030"/>
</linearGradient>
<clipPath id="clip0_49_267">
<rect width="178.819" height="164.35" fill="white" transform="translate(125.523 602.146)"/>
</clipPath>
</defs>
</svg>
