<svg width="634" height="673" viewBox="0 0 634 673" fill="none" xmlns="http://www.w3.org/2000/svg">
<g clip-path="url(#clip0_47_338)">
<path d="M100.949 -224.835C-275.741 -191.762 -478.441 223.362 -228.964 506.884C-113.713 638.41 78.8396 703.485 268.67 658.192C370.391 633.903 458.253 580.132 520.869 510.092C794.354 205.718 536.792 -263.33 100.949 -224.835Z" fill="url(#paint0_radial_47_338)"/>
<path d="M522.85 221.911C522.85 242.228 520.953 262.163 517.323 281.487C515.343 291.875 512.95 302.11 510.063 312.192C494.058 367.491 463.699 417.29 422.944 458.077C408.177 472.895 392.007 486.49 374.6 498.711C358.595 510.015 341.517 520.174 323.615 529.034C299.36 541.026 273.538 550.573 246.479 557.447C214.882 565.467 181.634 569.668 147.315 569.668C131.558 569.668 116.048 568.751 100.868 566.995C-26.3455 552.483 -133.924 479.005 -188.869 377.038C-210.318 337.321 -223.766 293.326 -227.313 246.811C-227.973 238.562 -228.303 230.236 -228.303 221.911C-228.303 169.438 -215.763 119.715 -193.323 75.1089C-173.276 35.2386 -145.227 -0.507103 -111.237 -30.3716C-79.8049 -58.0211 -43.1753 -80.7059 -2.83333 -96.9748C43.1186 -115.535 93.9379 -125.846 147.232 -125.846C309.178 -125.846 447.199 -30.9826 499.915 102.071C513.033 135.22 520.87 170.66 522.52 207.704C522.768 212.363 522.85 217.099 522.85 221.911Z" fill="url(#paint1_radial_47_338)"/>
<path d="M106.067 317.92C105.572 320.746 104.5 323.42 102.932 325.864C90.9699 345.723 49.3079 355.499 2.86092 348.09C-37.5636 341.598 -69.8208 323.878 -80.2156 304.63C-83.2681 298.978 -84.423 293.25 -83.3505 287.521C-78.6481 262.469 -33.1911 256.435 19.1132 264.913C71.4176 273.238 110.77 292.868 106.067 317.92Z" fill="#BCBCBC"/>
<path d="M-5.22481 152.329L-5.30739 152.405C-15.7023 166.917 -48.1243 153.627 -85.8264 130.79C-116.598 112.153 -138.543 93.5927 -140.028 79.4624C-140.358 76.2545 -139.616 73.1993 -137.718 70.4496C-127.323 55.7847 -86.0738 54.7918 -48.2893 77.7057C-10.5048 100.62 5.17007 137.664 -5.22481 152.329Z" fill="#BCBCBC"/>
<path d="M410.9 366.498C380.458 390.023 343.993 396.057 329.556 379.941C328.814 379.1 328.154 378.26 327.576 377.344C316.521 360.617 329.721 330.599 358.596 308.373C387.965 285.688 422.863 279.272 438.29 293.25C438.867 293.784 439.445 294.319 439.94 294.854C454.377 310.97 441.425 343.049 410.9 366.498Z" fill="#BCBCBC"/>
<path d="M191.287 173.639C160.515 196.171 129.248 208.621 111.346 187.693C109.613 185.707 108.211 183.568 106.973 181.277C95.5885 160.043 106.808 129.262 134.693 108.869C165.465 86.3369 207.457 75.7201 236.084 109.251C236.249 109.48 236.497 109.709 236.579 109.938C253.409 130.637 221.812 151.336 191.287 173.639Z" fill="#BCBCBC"/>
<path d="M68.3634 488.324C63.9084 492.295 55.0809 494.51 41.2211 493.899C-9.59827 491.837 -64.7901 434.552 -49.3628 416.145C-49.1153 415.839 -48.8678 415.61 -48.6203 415.381C-32.6155 398.654 7.47902 428.747 27.9388 438.677C61.6809 455.022 80.1607 477.86 68.3634 488.324Z" fill="#BCBCBC"/>
<path d="M267.682 446.085C267.764 456.931 251.842 468.388 226.762 469.381C180.893 471.214 154.74 463.042 148.553 447.918C147.893 446.314 147.481 444.634 147.233 442.801C145.006 424.393 186.998 427.525 209.107 426.456C250.604 424.393 267.599 434.934 267.682 446.085Z" fill="#BCBCBC"/>
<path d="M406.692 202.052C401.659 209.003 391.924 213.738 379.302 213.738C339.537 213.738 286.49 187.158 293.173 162.564C293.915 159.738 295.07 157.294 296.39 155.308C306.62 140.032 332.443 147.441 357.275 152.329C406.939 162.106 417.581 187.158 406.692 202.052Z" fill="#BCBCBC"/>
<path d="M277.581 21.4138C277.086 20.3445 276.838 19.1224 276.673 17.824C275.683 7.35996 286.821 -7.916 308.518 -13.4153C322.625 -17.0052 341.682 -16.5469 353.48 -9.82551C358.677 -6.8467 362.39 -2.72218 363.792 2.92993C367.092 16.9838 284.593 37.6827 277.581 21.4138Z" fill="#BCBCBC"/>
<path d="M467.576 117.576C465.844 118.34 463.781 118.493 461.553 117.958C452.314 115.743 440.269 102.606 436.639 82.8232C434.576 71.2135 440.846 60.0621 449.014 56.5486C458.089 52.5768 469.556 58.0762 474.176 82.8232C476.898 96.8771 476.486 113.451 467.576 117.576Z" fill="#BCBCBC"/>
<path d="M422.945 458.077C394.483 486.567 360.906 510.626 323.617 528.957C319.409 527.048 315.614 524.222 314.129 520.174C312.809 516.584 313.387 512.001 317.429 506.196C332.856 483.664 348.366 448.911 383.676 446.849C393.988 446.238 402.156 447.384 408.673 449.522C414.943 451.661 419.563 454.716 422.945 458.077Z" fill="#BCBCBC"/>
<path d="M246.397 557.371C214.8 565.391 181.553 569.592 147.233 569.592C131.476 569.592 115.966 568.675 100.786 566.918C100.786 562.794 101.612 558.364 104.334 554.621C106.974 551.031 111.346 548.129 118.524 547.06C145.006 542.935 158.288 526.59 195.825 528.652C215.295 529.721 228.908 538.505 237.405 546.678C241.612 550.802 244.5 554.621 246.397 557.371Z" fill="#BCBCBC"/>
<path d="M83.2121 383.454C73.3122 378.871 65.5572 375.282 67.7847 393.689C70.0122 412.097 85.4395 416.221 98.7218 416.221C111.922 416.221 92.0395 387.579 83.2121 383.454Z" fill="#9B9B9B"/>
<path d="M522.85 221.911C522.85 242.228 520.952 262.163 517.322 281.487C514.105 280.341 510.805 278.279 507.34 275.071C485.23 254.601 501.977 225.577 507.34 215.724C513.28 204.725 519.22 205.718 522.52 207.628C522.767 212.363 522.85 217.099 522.85 221.911Z" fill="#9B9B9B"/>
<path d="M295.317 244.366C282.53 242.915 275.435 252.539 295.317 260.712C315.2 268.961 312.972 246.429 295.317 244.366Z" fill="#9B9B9B"/>
<path d="M134.033 9.19323C127.433 11.2555 118.606 17.3659 134.033 19.4281C149.46 21.414 140.633 7.13098 134.033 9.19323Z" fill="#9B9B9B"/>
<path d="M171.569 9.19313C163.484 4.83949 162.742 25.5384 169.342 33.711C175.942 41.8837 198.052 23.4762 171.569 9.19313Z" fill="#9B9B9B"/>
<path d="M242.27 493.976C237.485 494.969 235.67 502.148 248.87 506.273C262.152 510.321 262.152 489.851 242.27 493.976Z" fill="#9B9B9B"/>
<path d="M50.0486 528.728C43.4487 530.791 36.7663 534.839 50.0486 538.963C63.331 543.011 56.6486 526.666 50.0486 528.728Z" fill="#9B9B9B"/>
<path d="M61.1033 228.021C49.8834 228.556 74.3857 242.304 80.9856 244.366C87.5855 246.429 107.468 225.959 61.1033 228.021Z" fill="#9B9B9B"/>
<path d="M423.439 174.861C417.911 178.833 427.894 201.441 436.721 199.379C445.548 197.316 443.321 160.501 423.439 174.861Z" fill="#9B9B9B"/>
<path d="M245.737 318.226C244.747 321.739 243.51 325.176 242.273 328.232C235.838 344.195 197.806 350.458 187.741 343.126C187.493 342.973 187.246 342.744 186.998 342.515C178.171 334.342 186.751 313.796 191.453 303.637C198.053 289.354 231.218 279.119 242.273 283.168C251.183 286.605 250.027 303.332 245.737 318.226Z" fill="#BCBCBC"/>
<path d="M-140.028 79.5388C-140.358 76.3309 -139.616 73.2757 -137.718 70.526C-127.323 55.8611 -86.0738 54.8682 -48.2893 77.7821C-10.5048 100.696 5.17007 137.74 -5.22481 152.405L-5.30739 152.482C-4.72989 143.545 -8.77226 131.019 -22.8796 113.528C-59.6741 68.0819 -126.746 52.424 -140.028 79.5388Z" fill="#9B9B9B"/>
<path d="M106.067 317.92C105.572 320.746 104.5 323.419 102.932 325.864C102.025 322.35 93.8574 294.777 56.6503 283.244C18.0408 271.328 -33.9337 260.712 -64.8708 283.244C-74.7707 290.423 -78.9782 297.832 -80.2156 304.554C-83.2681 298.902 -84.423 293.173 -83.3505 287.445C-78.6481 262.392 -33.1911 256.358 19.1132 264.836C71.4176 273.238 110.77 292.868 106.067 317.92Z" fill="#9B9B9B"/>
<path d="M167.115 103.217C126.031 116.354 108.706 153.628 106.973 181.277C95.5885 160.043 106.808 129.262 134.693 108.869C165.465 86.3369 207.457 75.7201 236.084 109.251C236.249 109.48 236.497 109.709 236.579 109.938C224.205 101.078 201.682 92.2182 167.115 103.217Z" fill="#9B9B9B"/>
<path d="M245.737 318.226C245.325 303.408 241.365 286.681 224.618 291.417C207.458 296.305 187.988 325.1 187.823 343.126C187.576 342.973 187.328 342.744 187.081 342.515C178.253 334.342 186.833 313.796 191.536 303.637C198.136 289.354 231.3 279.119 242.355 283.168C251.183 286.605 250.027 303.332 245.737 318.226Z" fill="#9B9B9B"/>
<path d="M406.692 202.052C411.725 175.09 365.03 166.383 341.683 158.516C318.583 150.725 302.744 153.475 296.309 155.308C306.539 140.032 332.361 147.441 357.193 152.329C406.94 162.106 417.582 187.158 406.692 202.052Z" fill="#9B9B9B"/>
<path d="M277.583 21.4139C277.088 20.3446 276.84 19.1225 276.675 17.8241C290.617 26.3786 326.339 19.428 346.057 11.179C360.164 5.2214 357.854 -3.48588 353.481 -9.74902C358.679 -6.77021 362.391 -2.64572 363.794 3.00639C367.094 16.9839 284.595 37.6828 277.583 21.4139Z" fill="#9B9B9B"/>
<path d="M68.3635 488.324C66.466 477.325 55.5762 466.632 36.7664 457.084C12.4292 444.787 -5.22565 432.566 -20.653 422.331C-28.7379 416.985 -39.8752 415.534 -48.6201 415.381C-32.6153 398.654 7.47919 428.747 27.9389 438.677C61.681 455.022 80.1609 477.86 68.3635 488.324Z" fill="#9B9B9B"/>
<path d="M267.682 446.085C264.134 437.913 253.409 434.552 235.59 434.552H173.715C150.038 434.552 148.553 447.231 148.553 447.842C147.893 446.238 147.481 444.558 147.233 442.725C145.006 424.317 186.998 427.449 209.107 426.379C250.604 424.393 267.599 434.934 267.682 446.085Z" fill="#9B9B9B"/>
<path d="M237.405 546.754C241.612 550.726 244.5 554.621 246.397 557.371C214.8 565.391 181.553 569.592 147.233 569.592C131.476 569.592 115.966 568.675 100.786 566.918C100.786 562.794 101.612 558.364 104.334 554.621C177.758 570.661 220.08 555.767 237.405 546.754Z" fill="#9B9B9B"/>
<path d="M422.944 458.077C394.482 486.567 360.905 510.627 323.615 528.958C319.408 527.048 315.613 524.222 314.128 520.174C375.754 498.788 402.402 460.063 408.671 449.599C414.941 451.661 419.561 454.717 422.944 458.077Z" fill="#9B9B9B"/>
<path d="M438.29 293.25C433.34 291.646 398.113 282.557 357.111 326.169C336.403 348.243 329.226 365.352 327.576 377.344C316.521 360.617 329.721 330.599 358.596 308.373C387.965 285.764 422.863 279.272 438.29 293.25Z" fill="#9B9B9B"/>
<path d="M461.553 117.882C452.314 115.667 440.269 102.529 436.639 82.7468C434.576 71.1371 440.846 59.9856 449.014 56.4722C445.466 60.8258 442.166 67.4709 443.239 76.6365C445.136 91.4541 451.159 106.272 461.553 117.882Z" fill="#9B9B9B"/>
<path opacity="0.45" d="M374.6 498.711C358.595 510.015 341.517 520.174 323.615 529.034C299.36 541.026 273.538 550.573 246.479 557.447C214.882 565.467 181.634 569.668 147.315 569.668C131.558 569.668 116.048 568.751 100.868 566.995C-26.3455 552.483 -133.924 479.005 -188.869 377.038C-210.318 337.321 -223.766 293.326 -227.313 246.811C-227.973 238.562 -228.303 230.236 -228.303 221.911C-228.303 169.438 -215.763 119.715 -193.323 75.1089C-173.276 35.2387 -145.227 -0.507088 -111.237 -30.3716C-216.011 432.261 169.342 496.343 374.6 498.711Z" fill="url(#paint2_linear_47_338)"/>
<path d="M522.851 221.911C522.851 242.228 520.953 262.163 517.323 281.487C515.344 291.875 512.951 302.11 510.064 312.192C497.029 32.489 292.431 -126.534 -2.83264 -96.9747C43.1193 -115.535 93.9386 -125.846 147.233 -125.846C309.178 -125.846 447.199 -30.9826 499.916 102.071C513.033 135.22 520.871 170.66 522.521 207.704C522.768 212.363 522.851 217.099 522.851 221.911Z" fill="url(#paint3_linear_47_338)"/>
</g>
<defs>
<radialGradient id="paint0_radial_47_338" cx="0" cy="0" r="1" gradientUnits="userSpaceOnUse" gradientTransform="translate(147.27 222.713) scale(449.887 416.517)">
<stop stop-color="#F8F8F8"/>
<stop offset="1" stop-color="white" stop-opacity="0"/>
</radialGradient>
<radialGradient id="paint1_radial_47_338" cx="0" cy="0" r="1" gradientUnits="userSpaceOnUse" gradientTransform="translate(130.686 37.8027) scale(573.539 530.998)">
<stop stop-color="#E8E8E8"/>
<stop offset="1" stop-color="#DFDFDF"/>
</radialGradient>
<linearGradient id="paint2_linear_47_338" x1="74.6795" y1="724.873" x2="71.5384" y2="-136.936" gradientUnits="userSpaceOnUse">
<stop/>
<stop offset="1" stop-opacity="0.2"/>
</linearGradient>
<linearGradient id="paint3_linear_47_338" x1="481.347" y1="-126" x2="272.054" y2="124.47" gradientUnits="userSpaceOnUse">
<stop stop-color="#B7B7B7"/>
<stop offset="0.557292" stop-color="#AEAEAE" stop-opacity="0.2"/>
</linearGradient>
<clipPath id="clip0_47_338">
<rect width="972.4" height="899.6" fill="white" transform="translate(-338.938 -227.062)"/>
</clipPath>
</defs>
</svg>
